HIERARCHY
ROOT Hips
{
    OFFSET 0.0 0.0 0.0
    CHANNELS 6 Xposition Yposition Zposition Zrotation Xrotation Yrotation
    JOINT LeftUpLeg
    {
        OFFSET 12.95772516416217 0.0 0.0
        CHANNELS 3 Zrotation Xrotation Yrotation
        JOINT LeftLeg
        {
            OFFSET 0.0 0.0 -63.68578459073917
            CHANNELS 3 Zrotation Xrotation Yrotation
            JOINT LeftFoot
            {
                OFFSET 0.0 0.0 -49.202067629789696
                CHANNELS 3 Zrotation Xrotation Yrotation
                JOINT LeftToeBase
                {
                    OFFSET 0.0 -12.977800533259911 0.0
                    CHANNELS 3 Zrotation Xrotation Yrotation
                    End Site
                    {
                        OFFSET 0 0 0
                    }
                }
            }
        }
    }
    JOINT RightUpLeg
    {
        OFFSET -12.95772516416217 0.0 0.0
        CHANNELS 3 Zrotation Xrotation Yrotation
        JOINT RightLeg
        {
            OFFSET 0.0 0.0 -63.68578459073917
            CHANNELS 3 Zrotation Xrotation Yrotation
            JOINT RightFoot
            {
                OFFSET 0.0 0.0 -49.202067629789696
                CHANNELS 3 Zrotation Xrotation Yrotation
                JOINT RightToeBase
                {
                    OFFSET 0.0 -12.977800533259911 0.0
                    CHANNELS 3 Zrotation Xrotation Yrotation
                    End Site
                    {
                        OFFSET 0 0 0
                    }
                }
            }
        }
    }
    JOINT Spine
    {
        OFFSET 0.0 0.0 11.596714018730163
        CHANNELS 3 Zrotation Xrotation Yrotation
        JOINT Spine1
        {
            OFFSET 0.0 0.0 11.047935599717722
            CHANNELS 3 Zrotation Xrotation Yrotation
            JOINT Spine2
            {
                OFFSET 0.0 0.0 11.047935599717722
                CHANNELS 3 Zrotation Xrotation Yrotation
                JOINT Spine3
                {
                    OFFSET 0.0 0.0 11.047935599717714
                    CHANNELS 3 Zrotation Xrotation Yrotation
                    JOINT Spine4
                    {
                        OFFSET 0.0 0.0 11.047935599717725
                        CHANNELS 3 Zrotation Xrotation Yrotation
                        JOINT RightShoulder
                        {
                            OFFSET -25.44540633104251 0.0 0.0
                            CHANNELS 3 Zrotation Xrotation Yrotation
                            JOINT RightArm
                            {
                                OFFSET -32.8143935109285 0.0 0.0
                                CHANNELS 3 Zrotation Xrotation Yrotation
                                JOINT RightForeArm
                                {
                                    OFFSET -32.9525135053953 0.0 0.0
                                    CHANNELS 3 Zrotation Xrotation Yrotation
                                    JOINT RightHand
                                    {
                                        OFFSET -12.681402564542363 0.0 0.0
                                        CHANNELS 3 Zrotation Xrotation Yrotation
                                        End Site
                                        {
                                            OFFSET 0 0 0
                                        }
                                    }
                                }
                            }
                        }
                        JOINT LeftShoulder
                        {
                            OFFSET 25.44540633104251 0.0 0.0
                            CHANNELS 3 Zrotation Xrotation Yrotation
                            JOINT LeftArm
                            {
                                OFFSET 32.8143935109285 0.0 0.0
                                CHANNELS 3 Zrotation Xrotation Yrotation
                                JOINT LeftForeArm
                                {
                                    OFFSET 32.9525135053953 0.0 0.0
                                    CHANNELS 3 Zrotation Xrotation Yrotation
                                    JOINT LeftHand
                                    {
                                        OFFSET 12.681402564542363 0.0 0.0
                                        CHANNELS 3 Zrotation Xrotation Yrotation
                                        End Site
                                        {
                                            OFFSET 0 0 0
                                        }
                                    }
                                }
                            }
                        }
                        JOINT Neck
                        {
                            OFFSET 0.0 0.0 11.047935590541233
                            CHANNELS 3 Zrotation Xrotation Yrotation
                            JOINT Head
                            {
                                OFFSET 0.0 0.0 27.78631164748348
                                CHANNELS 3 Zrotation Xrotation Yrotation
                                End Site
                                {
                                    OFFSET 0 0 0
                                }
                            }
                        }
                    }
                }
            }
        }
    }
}
MOTION
Frames: 9
Frame Time: 0.03333333333333333
28.927598261833193 -13.137513542175293 456.30424003601075 133.7073902206532 -75.29323995756627 137.50277883076023 -27.738740942609933 31.463195660921834 8.051423161543195 46.980715464088235 -37.48735733311053 11.910545783429319 -79.94881293410394 -3.1805546814635168e-15 36.1104917806601 0.0 0.0 0.0 -38.77661087860775 -25.477079764865298 -5.421316349662583 37.90803086656973 26.56319107580681 -37.859851895702135 105.89828393761292 -2.8624992133171654e-14 -104.02824044194674 0.0 0.0 0.0 0.3990175839118942 4.169589607967879 -1.0554991761189232 0.0 0.0 0.0 0.0 0.0 0.0 0.0 0.0 0.0 0.0 0.0 0.0 144.11504607817892 13.302924532181432 -138.44055173225246 112.32195372170432 -7.054700053743314e-15 -9.004707438954025e-16 9.700963882804398e-17 -1.746825817255734 6.363327446421168e-15 3.1805546814635168e-15 0.0 0.0 -175.10262305175485 -59.322908869871526 102.75296100737883 -52.29768942010675 -1.03323768211744e-16 -1.422349766529008e-14 -180.0 17.645273750018394 180.0 0.0 0.0 1.987846675914698e-16 6.40778130909258 -4.8522545682822545e-15 -1.3211532117936695e-15 -7.951386703658792e-16 0.0 0.0
28.930049765110017 -13.161719173192978 456.28513755798343 133.69768568270942 -75.42868360469674 137.47389232490917 -27.806430212938658 31.521683954781416 8.107631319333604 47.15831317840042 -37.59076085507772 12.229234019738305 -80.05631317528932 -1.2722218725854067e-14 35.11145135878253 0.0 0.0 0.0 -38.85935991040148 -25.4842861177757 -5.092312202729872 31.209385781269265 22.569385760263085 -32.554411909630765 103.15596582933027 6.3611093629270335e-15 -113.69859526784875 0.0 0.0 0.0 0.43692443231524636 4.493966390164497 -1.052399775754833 -3.975693351829396e-16 0.0 0.0 -3.975693351829396e-16 0.0 0.0 -3.975693351829396e-16 0.0 0.0 -3.975693351829396e-16 0.0 0.0 144.22462421183886 13.675238876455184 -138.48995966210597 112.44890874710813 1.2343186286342737e-14 4.4290551690955484e-15 3.1806101796897333e-15 -0.39083290181167235 1.084802350853961e-17 0.0 0.0 0.0 -178.285002164604 -58.26249184578206 100.39525339305325 -58.84456719338992 -2.770335713857815e-15 -1.56242379471877e-15 -179.9999999999998 88.54287211329871 179.9999999999998 -1.2722218725854064e-14 6.361109362927031e-15 6.361109362927033e-15 6.034702169582291 4.920872205975205e-15 -1.0556288556964036e-15 7.951386703658792e-16 0.0 0.0
28.9316867351532 -13.200854891538622 456.27140579223635 133.6145721383259 -75.5658351153062 137.37204474644167 -27.93314310759714 31.592662168389506 8.170793077323058 47.29711618608014 -37.6628997346957 12.567037485054255 -85.34968076193455 6.3611093629270335e-15 42.07188584967988 0.0 0.0 0.0 -38.64905557641114 -25.349428816525396 -4.63409661008209 25.134542252878163 18.56010667031806 -28.237386491268666 102.36987425648147 3.1805546814635168e-15 -119.02621504690877 0.0 0.0 0.0 0.4698109930328763 4.76939770134475 -1.001645728713504 3.975693351829396e-16 0.0 0.0 3.975693351829396e-16 0.0 0.0 3.975693351829396e-16 0.0 0.0 3.975693351829396e-16 0.0 0.0 144.68629762475965 13.620113798637515 -138.59784374685046 113.06992011703595 8.769235680217642e-16 -1.3266450453278191e-15 3.091680929668924e-15 -1.6175461653302214 -6.3180988515706316e-15 0.0 0.0 0.0 179.17404860376575 -57.894597138009495 98.50202751937525 -64.35802566475722 -2.6919842678799225e-15 -1.6938561873035423e-15 -9.608482297698796e-15 61.31737298097752 1.3090478086879012e-14 0.0 0.0 0.0 5.645573555314762 -8.239553936789733e-15 4.06266225946785e-16 0.0 0.0 1.5902773407317588e-15
28.932714664936068 -13.25339856147766 456.2630373001099 133.47473149885118 -75.70863201683852 137.21757219177516 -28.088732579512246 31.67205834350144 8.223997985979127 46.95935877561445 -37.51217161034197 12.869620491732462 -89.77950870908172 -9.54166404439055e-15 51.81310536608882 0.0 0.0 0.0 -38.19816597025819 -25.095713378506638 -4.121624918449124 18.473399801233366 13.888724906511541 -24.443751462148207 102.62950735634514 9.54166404439055e-15 -124.76808452206502 0.0 0.0 1.5902773407317584e-15 0.49699832421856266 4.982544904986233 -0.9106851990947649 -7.951386703658792e-16 0.0 0.0 -7.951386703658792e-16 0.0 0.0 -7.951386703658792e-16 0.0 0.0 -7.951386703658792e-16 0.0 0.0 145.33543364292166 13.276659984385567 -138.7064352601509 113.96222009902922 -1.7331335707518607e-15 2.666866346053435e-15 6.604576342412628e-15 -4.149999699747454 6.604576342412628e-15 -3.1805546814635168e-15 0.0 0.0 179.07550609437524 -63.533661693851556 98.09841617118566 -60.0525440004208 -5.507423336492214e-15 -3.183080350820402e-15 -7.693119150406423e-15 54.39510631793756 2.5408851690724988e-14 0.0 0.0 0.0 5.2638899485055575 4.405162160753293e-15 5.93479883562153e-16 3.1805546814635168e-15 1.987846675914698e-16 -5.517382872562698e-33
28.93301732540131 -13.31731059551239 456.25970478057866 133.2551897977519 -75.85832696543245 136.98725136344163 -28.262380926957743 31.75403483295611 8.259170217337584 46.644447773907615 -37.35901636517087 13.22439208118352 -92.95065239471039 -1.90833280887811e-14 61.76512344697774 6.3611093629270335e-15 -6.3611093629270335e-15 -6.3611093629270335e-15 -37.12555600212819 -24.482247959987067 -3.6182627965758725 15.19226696806985 11.520139377366425 -23.010980990373604 105.58283841955834 0.0 -129.74236504345922 0.0 0.0 0.0 0.520613025578776 5.159177012017826 -0.8058057193395807 -3.975693351829396e-16 0.0 0.0 -3.975693351829396e-16 0.0 0.0 -3.975693351829396e-16 0.0 0.0 -3.975693351829396e-16 0.0 0.0 146.09883623483316 12.744746171639202 -138.80624077773095 115.02750125923619 7.928125769282465e-15 -6.077600657835012e-16 1.0045586024951467e-14 -7.80573645490931 7.06124044830929e-15 -3.1805546814635168e-15 0.0 0.0 179.5946637467056 -71.33201565506818 97.97527314053204 -51.97635972310852 7.075774042130287e-15 -3.627391930276775e-15 1.7366256805597402e-14 47.98872030524137 -7.729907489965766e-15 0.0 0.0 0.0 4.893931709781488 -1.1715058412132305e-14 2.8882196571942895e-15 2.385416011097637e-15 1.9878466759146975e-16 -7.951386703658791e-16
28.93150262832642 -13.380861389636994 456.2652168273926 132.90145766239556 -76.00538987520365 136.63758621448545 -28.438577507177662 31.825875371909323 8.263068490812966 46.36457549314339 -37.19804465504375 13.680464869862275 -95.22781686744388 -6.3611093629270335e-15 70.97385738003896 0.0 0.0 0.0 -36.26763804357562 -24.014815431447975 -3.5239615012805983 11.63387154077991 8.984093715042375 -21.508095629002813 108.12986095552185 3.1805546814635168e-15 -134.46368518610885 0.0 0.0 0.0 0.5434005553876788 5.329395495716012 -0.7150110531431576 -3.975693351829396e-16 0.0 0.0 -3.975693351829396e-16 0.0 0.0 -3.975693351829396e-16 0.0 0.0 -3.975693351829396e-16 0.0 0.0 146.88507664983825 12.15067847529261 -138.88429231989102 116.13129501654895 3.513483914272981e-16 1.1462269381364882e-14 -6.481326988734572e-15 -12.736020535612576 -7.233333102406165e-16 3.1805546814635168e-15 -6.3611093629270335e-15 1.7655625192200634e-31 -142.9602294322728 -77.57759864636586 136.49496938767936 -37.344820744817476 -3.3198191978064422e-15 1.23071481386818e-14 4.236323911057673e-14 79.47918066634637 -4.349249108757133e-14 0.0 0.0 0.0 4.591366705089435 6.9518794155065495e-15 -2.7869172455236653e-16 7.951386703658792e-16 0.0 0.0
28.929460716247558 -13.4445521235466 456.2780708312988 132.44586376367684 -76.16325400399522 136.19254692307777 -28.5658307253657 31.85557754225455 8.230935695494876 46.1196800028533 -37.04762171827871 14.134395606247766 -96.80389640204137 3.1805546814635168e-15 78.9826999728367 0.0 0.0 0.0 -35.72158751024924 -23.75144391438748 -3.730319587700722 16.034699953911588 12.387376185251993 -23.652363706140402 116.4586594292755 0.0 -137.1699701266465 0.0 0.0 0.0 0.5618234582929494 5.465071297202852 -0.6557417564796073 -7.951386703658792e-16 0.0 0.0 -7.951386703658792e-16 0.0 0.0 -7.951386703658792e-16 0.0 0.0 -7.951386703658792e-16 0.0 0.0 147.71250657736542 11.504212973309931 -138.9857994581648 117.24915526029939 1.2616162325519056e-14 2.8182595158783207e-14 -7.762953014074307e-15 -19.18096528756672 -7.762953014074307e-15 0.0 0.0 0.0 -96.63037438784795 -65.61429732484928 -174.64122657297412 -22.73744806887674 4.677223162120693e-15 9.40436959995492e-16 180.0 30.158687339558096 180.0 0.0 0.0 -1.5902773407317584e-15 4.339610338443877 -1.263178867499713e-14 5.25285286479188e-15 0.0 0.0 0.0
28.927855825424196 -13.50798808336258 456.2975452423096 131.90067863563954 -76.33292875247847 135.65931631596897 -28.64189320838953 31.846055241925637 8.169691239926047 45.92078043054697 -36.92402674288624 14.591606084928962 -97.18051729454784 6.3611093629270335e-15 81.2596669235012 0.0 0.0 -3.1805546814635168e-15 -34.682151703224896 -23.178484047698003 -3.6578471809403226 15.836528676195137 12.374161214153652 -23.385368121048344 120.93574461853694 3.1805546814635168e-15 -138.82509322897351 0.0 0.0 0.0 0.5751671254175832 5.559019255546415 -0.6183448996797313 -7.951386703658792e-16 0.0 0.0 -7.951386703658792e-16 0.0 0.0 -7.951386703658792e-16 0.0 0.0 -7.951386703658792e-16 0.0 0.0 148.08237000300707 11.338254243272033 -139.01075111194658 118.02774542834683 -1.7997430717857638e-14 -7.098015679170883e-15 1.6690741937745968e-15 -20.30223000426701 2.9884390932931823e-16 0.0 0.0 0.0 -99.5193260901289 -16.37174122714721 -166.37040315795932 -14.287739437048065 -1.262345625570293e-14 -1.582150899511938e-15 179.99999999999997 -55.31139181934284 180.0 3.1805546814635168e-15 -3.1805546814635168e-15 1.167859922099885e-15 4.136645064132296 1.5963042830286746e-14 -1.3721579754543032e-15 0.0 0.0 0.0
28.92746390104294 -13.568521571159362 456.3208951950073 131.28305464516504 -76.50878300972862 135.05040977096138 -28.67192170605925 31.800156429407554 8.089600763191857 46.19077148838602 -37.02730960160394 15.051419956998506 -97.77193693509759 -6.3611093629270335e-15 81.89754849878238 0.0 0.0 0.0 -33.61357811337273 -22.581288755035658 -3.5380723971794943 15.46025140596963 12.206396285458954 -22.866888705081905 125.20516766899222 3.180554681463517e-14 -139.26319718706117 0.0 0.0 0.0 0.5839402159859256 5.618002390252147 -0.5972244323349342 -7.951386703658792e-16 0.0 0.0 -7.951386703658792e-16 0.0 0.0 -7.951386703658792e-16 0.0 0.0 -7.951386703658792e-16 0.0 0.0 148.2103041056551 11.44146487816701 -139.0204319527127 118.61430972595672 -1.623468143440316e-15 2.7350099211911357e-15 -5.571760643599937e-16 -18.847104685948985 6.35565199485831e-15 -3.1805546814635168e-15 0.0 0.0 -109.56198730641036 8.835789889840719 -162.28649996450653 -19.759472619499423 -1.88003236763999e-14 -3.274330558550727e-15 -1.1272746345952797e-13 -85.05210438740052 -1.2173182308868875e-13 0.0 0.0 -2.5842006786891076e-15 3.963809159466143 -1.010445451105697e-14 1.1452748420069713e-15 -1.3793457181406746e-33 9.939233379573489e-17 1.5902773407317582e-15
